<svg width="22" height="29" viewBox="0 0 22 29" fill="none" xmlns="http://www.w3.org/2000/svg">
<path fill-rule="evenodd" clip-rule="evenodd" d="M14.196 17.0682C13.2964 17.9678 12.2311 18.4176 11 18.4176C9.76894 18.4176 8.7036 17.9678 7.80398 17.0682C6.90436 16.1685 6.45455 15.1032 6.45455 13.8721V4.78123C6.45455 3.55017 6.90436 2.48483 7.80398 1.58521C8.7036 0.685589 9.76894 0.235779 11 0.235779C12.2311 0.235779 13.2964 0.685589 14.196 1.58521C15.0956 2.48483 15.5455 3.55017 15.5455 4.78123V13.8721C15.5455 15.1032 15.0956 16.1685 14.196 17.0682ZM12.4915 24.0284V29H9.50853V24.0284C6.99906 23.6496 4.85654 22.5014 3.08097 20.5838C1.3054 18.6662 0.417618 16.429 0.417618 13.8721H2.97444C2.97444 16.0975 3.76752 17.9323 5.3537 19.3764C6.93987 20.8205 8.82197 21.5426 11 21.5426C13.178 21.5426 15.0601 20.8205 16.6463 19.3764C18.2325 17.9323 19.0256 16.0975 19.0256 13.8721H21.5824C21.5824 16.429 20.6946 18.6662 18.919 20.5838C17.1435 22.5014 15.001 23.6496 12.4915 24.0284Z" fill="white"/>
</svg>
